<svg version="1.1" id="Layer_1" xmlns="http://www.w3.org/2000/svg" xmlns:xlink="http://www.w3.org/1999/xlink" x="0px" y="0px"
	 width="100%" viewBox="0 0 4170 1239" enable-background="new 0 0 4170 1239" xml:space="preserve">
<path fill="#000000" opacity="1.000000" stroke="none" 
	d="
M2982.000000,1242.000000 
	C1988.091675,1242.000000 995.183228,1242.000000 2.137433,1242.000000 
	C2.137433,828.796448 2.137433,415.592865 2.137433,2.194640 
	C1392.000000,2.194640 2782.000000,2.194640 4171.944336,2.194640 
	C4171.944336,415.483917 4171.944336,828.741943 4171.944336,1242.000000 
	C3775.592529,1242.000000 3379.296143,1242.000000 2982.000000,1242.000000 
M1984.107910,268.177124 
	C1984.107910,268.177124 1984.181396,268.471344 1983.295532,268.565979 
	C1982.695679,268.969513 1982.556152,269.495300 1981.974609,271.075195 
	C1981.377563,272.208160 1980.780640,273.341125 1979.352173,274.620514 
	C1978.801270,275.057892 1978.733643,275.560333 1978.387207,277.101532 
	C1978.310913,277.506592 1978.234497,277.911621 1976.965698,279.099396 
	C1971.105103,290.566864 1970.238647,302.819489 1972.516968,315.128113 
	C1977.190674,340.377228 1999.413452,360.222168 2024.273682,362.073395 
	C2051.905273,364.131012 2076.275146,348.513702 2085.145508,323.064117 
	C2093.880859,298.001648 2084.923584,269.609253 2062.561279,255.339584 
	C2044.087891,243.551392 2024.396606,240.654953 2003.048584,252.339523 
	C2002.725952,252.602875 2002.403198,252.866211 2001.270386,252.822815 
	C2000.586914,253.002289 2000.295654,253.441757 2000.114746,254.034302 
	C2000.114746,254.034302 2000.044678,254.327438 1998.982422,254.135498 
	C1998.269897,254.867783 1997.557373,255.600067 1996.368042,256.370300 
	C1996.368042,256.370300 1996.170044,256.805695 1995.275269,256.672272 
	C1994.604248,256.942657 1994.338867,257.432861 1993.469360,258.551086 
	C1992.998047,259.092194 1992.526733,259.633301 1990.976318,260.206604 
	C1990.676270,260.808411 1990.376343,261.410217 1989.011230,262.534271 
	C1988.026611,263.753326 1987.041870,264.972351 1985.026367,266.322418 
	C1984.820801,266.931030 1984.615356,267.539673 1984.107910,268.177124 
M2074.011475,696.046387 
	C2074.011475,696.046387 2074.129883,695.971924 2075.487793,696.277405 
	C2077.677002,695.546814 2079.866211,694.816223 2083.563477,693.704468 
	C2114.037598,684.159302 2145.315186,678.540894 2176.900391,673.928955 
	C2179.438477,687.627075 2181.199463,700.831055 2184.389160,713.680359 
	C2195.706787,759.274292 2220.856445,794.638306 2262.813965,817.071838 
	C2290.817139,832.044312 2321.071045,837.450195 2352.472412,837.382385 
	C2369.183350,837.346313 2384.267090,832.539551 2398.392090,823.014648 
	C2421.857910,807.190613 2446.074219,792.478088 2470.002441,777.341858 
	C2472.344971,775.860107 2474.883545,774.688232 2478.324951,772.838074 
	C2478.324951,778.657715 2478.325684,782.960510 2478.324463,787.263306 
	C2478.305420,853.256653 2478.382568,919.250244 2478.169434,985.242981 
	C2478.135254,995.866943 2476.988525,1006.503418 2476.015869,1017.102966 
	C2475.266357,1025.273315 2470.584961,1030.743408 2462.665527,1032.692871 
	C2456.245117,1034.273193 2449.646240,1035.461914 2443.060791,1035.969116 
	C2428.528809,1037.088013 2413.955566,1037.667236 2398.931152,1038.492310 
	C2398.931152,1047.059082 2398.931152,1054.872192 2398.931152,1064.073975 
	C2472.175049,1060.436523 2544.953125,1059.946533 2617.890137,1063.903809 
	C2617.890137,1054.796509 2617.890137,1046.715576 2617.890137,1038.337280 
	C2613.837158,1038.099854 2610.521240,1037.984497 2607.219971,1037.698242 
	C2595.609619,1036.691650 2583.903564,1036.260864 2572.421631,1034.431763 
	C2556.006836,1031.816772 2551.567627,1026.701294 2550.245361,1010.054688 
	C2549.349121,998.769836 2548.929932,987.418884 2548.917236,976.096741 
	C2548.811768,882.439636 2548.847168,788.782288 2548.865479,695.125061 
	C2548.865967,691.892761 2549.135254,688.660461 2549.323242,684.442688 
	C2600.651367,690.761169 2651.072021,696.967834 2701.409180,703.164307 
	C2702.327148,719.495239 2702.620605,734.829102 2704.152344,750.038269 
	C2708.513672,793.333618 2733.750488,823.089661 2774.951904,832.527893 
	C2786.883057,835.261047 2799.276367,836.623901 2811.525146,837.207703 
	C2854.382080,839.250488 2892.393799,827.725586 2923.446777,796.535767 
	C2936.600586,783.324158 2950.832764,771.183960 2964.643311,758.632019 
	C2966.157715,757.255859 2968.126953,756.380188 2971.653320,754.158630 
	C2970.494141,780.492554 2969.418945,804.912964 2968.315918,829.970154 
	C3014.648682,826.728882 3060.452881,826.914001 3106.460449,829.874695 
	C3106.460449,820.945007 3106.460449,812.829102 3106.460449,804.422180 
	C3100.444092,804.077637 3095.123535,803.930054 3089.835693,803.435913 
	C3080.232422,802.538574 3070.554688,801.961060 3061.081787,800.274536 
	C3050.950439,798.470703 3044.111572,792.567261 3043.629150,781.484314 
	C3042.862305,763.862061 3042.265137,746.232056 3041.694092,728.602112 
	C3041.612061,726.077209 3042.078613,723.534546 3042.227295,721.762390 
	C3079.988770,717.429321 3116.889160,713.195068 3154.107178,708.924316 
	C3154.794922,711.320740 3155.490479,713.871521 3156.258301,716.400269 
	C3171.232910,765.702026 3200.188965,803.373230 3247.448486,825.713989 
	C3270.941895,836.820007 3295.920898,842.057312 3321.697021,843.944885 
	C3374.691895,847.825928 3421.930664,830.239990 3467.000488,804.776978 
	C3470.408691,802.851562 3473.962402,800.288879 3476.058594,797.106873 
	C3482.039062,788.028259 3487.302002,778.476746 3493.099365,768.685669 
	C3489.001709,765.500000 3485.681885,762.919189 3482.306885,760.295471 
	C3474.463623,764.693787 3467.362549,769.045044 3459.941895,772.758545 
	C3445.679932,779.895569 3431.731689,788.095825 3416.763672,793.291260 
	C3388.239258,803.191833 3359.036377,801.050171 3329.999268,794.276184 
	C3298.017334,786.815186 3272.750732,769.724670 3254.759033,742.180969 
	C3242.206543,722.964417 3234.186523,701.901184 3230.136963,679.341614 
	C3227.501465,664.661743 3225.566406,649.908081 3226.496582,633.961426 
	C3230.275879,633.961426 3233.533203,633.961426 3236.790771,633.961426 
	C3272.120605,633.961121 3307.451904,634.158386 3342.780029,633.910828 
	C3387.780518,633.595581 3432.759033,632.547363 3477.390625,625.924194 
	C3485.177002,624.768799 3492.916748,623.300232 3501.614990,621.816406 
	C3501.614990,604.540955 3502.460205,588.203247 3501.428223,571.984985 
	C3499.614990,543.495178 3490.689209,517.151001 3473.618164,494.014526 
	C3451.291748,463.756073 3421.319336,445.372009 3384.642578,437.513916 
	C3349.488037,429.981934 3315.354004,431.858368 3281.882568,446.087036 
	C3256.870361,456.719574 3233.752686,470.199097 3212.050537,486.478851 
	C3186.946045,505.311157 3169.692139,529.631348 3159.930908,559.221130 
	C3147.508301,596.879761 3146.381836,635.749329 3148.603760,674.897278 
	C3148.729736,677.116699 3148.817871,679.338257 3148.913574,681.357239 
	C3132.789551,687.175110 3055.775146,698.047241 3041.616699,696.464111 
	C3041.616699,609.991028 3041.616699,523.435120 3041.616699,437.676025 
	C3036.668213,432.720459 3032.314941,433.588226 3027.174316,435.600372 
	C2989.228027,450.452942 2950.349609,461.875305 2909.692871,466.498535 
	C2907.478027,466.750397 2905.337891,467.656250 2903.533936,468.155060 
	C2903.533936,475.930725 2903.533936,483.089325 2903.533936,490.881348 
	C2912.868408,490.881348 2921.515381,490.468384 2930.104492,490.997589 
	C2938.686035,491.526367 2947.317871,492.477600 2955.724854,494.221405 
	C2962.424316,495.611084 2966.580811,500.613831 2967.794189,507.459473 
	C2968.838623,513.351135 2970.085938,519.315979 2970.135986,525.257751 
	C2970.594971,579.910889 2970.846436,634.565918 2971.033691,689.220886 
	C2971.047852,693.373779 2970.110107,697.529968 2969.599121,701.815125 
	C2903.307373,703.358032 2838.513672,700.856934 2772.872070,695.131104 
	C2772.872070,608.504028 2772.872070,522.637573 2772.872070,437.809326 
	C2767.237793,432.264282 2762.491455,433.795502 2757.213623,435.874939 
	C2723.985352,448.966370 2689.904297,459.102051 2654.536865,464.582703 
	C2647.734375,465.636841 2640.924561,466.641968 2634.290771,467.643646 
	C2634.290771,475.793549 2634.290771,482.964783 2634.290771,490.879852 
	C2638.832764,490.879852 2642.789795,490.805908 2646.742920,490.894318 
	C2656.733887,491.117828 2666.765381,490.931366 2676.703613,491.793518 
	C2692.087402,493.127991 2698.124512,499.037476 2699.833496,514.178650 
	C2700.952637,524.095215 2701.699707,534.108032 2701.747070,544.081909 
	C2701.963135,589.409668 2701.879883,634.738892 2701.869629,680.067627 
	C2701.869141,682.665894 2701.562988,685.263977 2701.349609,688.648987 
	C2650.307617,683.356812 2599.829590,678.123108 2549.279541,672.881897 
	C2549.066650,670.257019 2548.869629,668.959778 2548.869873,667.662598 
	C2548.872559,630.999817 2548.544434,594.332520 2549.026367,557.675781 
	C2549.403076,529.011169 2550.839600,500.339264 2558.114990,472.399384 
	C2560.602539,462.846649 2564.179199,453.577484 2567.402100,443.739594 
	C2562.458008,440.793396 2557.664307,437.936920 2552.651367,434.949860 
	C2540.634277,442.349976 2528.854492,449.222626 2517.519531,456.763733 
	C2512.707275,459.965240 2508.847168,459.931305 2503.773193,457.606293 
	C2469.745605,442.013977 2434.033447,433.503418 2396.518799,433.026550 
	C2372.171387,432.717072 2348.426025,436.036224 2327.321045,448.899841 
	C2302.581543,463.978912 2278.092529,479.540527 2254.202637,495.924957 
	C2217.909912,520.815796 2193.939941,554.680786 2183.593994,597.791443 
	C2178.738770,618.020874 2177.238525,638.569946 2177.396973,659.298889 
	C2177.416504,661.846313 2177.156006,664.395874 2177.036865,666.717041 
	C2157.778320,670.613892 2139.110840,673.912354 2120.690674,678.258423 
	C2103.646973,682.279907 2086.867676,687.422791 2068.220215,691.840881 
	C2065.915039,692.294312 2063.609863,692.747803 2061.141113,691.181580 
	C2061.129883,633.217163 2061.139893,575.252686 2061.098877,517.288269 
	C2061.080322,490.974457 2060.960205,464.660675 2061.430908,437.416962 
	C2060.898193,437.044556 2060.365234,436.672150 2058.748291,435.595337 
	C2054.662842,432.274139 2050.760986,434.112030 2046.607788,435.707764 
	C2012.378662,448.859497 1977.443970,459.519409 1941.088623,465.035858 
	C1934.935425,465.969513 1928.768066,466.811371 1922.892090,467.654755 
	C1922.892090,475.818329 1922.892090,482.979645 1922.892090,490.881927 
	C1927.772461,490.881927 1932.057129,490.795776 1936.337158,490.899200 
	C1946.318359,491.140472 1956.347900,490.945312 1966.265503,491.893097 
	C1980.868774,493.288666 1986.424805,498.524078 1988.280273,512.954529 
	C1989.676636,523.815002 1990.350098,534.839233 1990.380371,545.793152 
	C1990.567139,613.395020 1990.498291,680.997620 1990.458984,748.599976 
	C1990.454834,755.923401 1990.258545,763.255310 1989.870972,770.568359 
	C1988.574463,795.031616 1982.787598,800.863892 1958.578491,802.342651 
	C1946.334717,803.090515 1934.087646,803.783936 1921.290527,804.534241 
	C1921.290527,813.145386 1921.290527,821.262695 1921.290527,829.846130 
	C1991.265503,826.906128 2060.670410,826.530823 2130.085938,829.917358 
	C2130.085938,820.854919 2130.085938,812.762756 2130.085938,804.387451 
	C2124.027100,804.090271 2118.710449,803.984253 2113.422363,803.537842 
	C2102.497803,802.615662 2091.512207,802.006409 2080.694824,800.340393 
	C2070.405762,798.755737 2063.811523,792.753662 2063.461426,781.584900 
	C2062.658691,755.982117 2061.957764,730.375854 2061.069824,704.776123 
	C2060.892334,699.661743 2064.462891,698.960205 2069.263672,698.223999 
	C2070.799805,697.495056 2072.335938,696.766052 2074.011475,696.046387 
M1040.038452,538.838379 
	C1037.942017,535.578918 1035.845581,532.319397 1033.450073,528.594849 
	C1037.422119,526.849365 1040.432983,525.491699 1043.470581,524.196899 
	C1064.084961,515.409912 1083.697021,504.855011 1101.263062,490.826843 
	C1141.868530,458.399231 1162.162476,416.846710 1157.853394,364.288361 
	C1155.894043,340.388458 1148.242676,318.874481 1132.383789,300.463226 
	C1116.134277,281.598602 1095.341064,270.317352 1071.827148,263.689972 
	C1044.302734,255.932205 1016.042480,254.436920 987.618530,254.959152 
	C889.301880,256.765594 790.985229,257.485260 692.666992,255.066559 
	C689.398315,254.986145 686.125977,255.056366 681.850830,255.056366 
	C681.850830,260.693909 681.850830,265.598480 681.850830,270.503052 
	C681.850830,275.413818 681.850830,280.324554 681.850830,285.451080 
	C689.488464,286.255707 696.066284,286.939575 702.641907,287.643890 
	C709.595398,288.388702 716.569458,288.988708 723.494873,289.940308 
	C742.464539,292.546844 749.572937,299.884277 751.758179,318.898468 
	C752.062256,321.543976 752.220215,324.215363 752.278992,326.878479 
	C752.646179,343.537842 753.243530,360.198029 753.256592,376.858337 
	C753.344116,488.183136 753.348083,599.508118 753.255859,710.832825 
	C753.242310,727.159119 752.756531,743.492126 752.107788,759.806885 
	C751.884705,765.417419 750.819092,771.055237 749.561096,776.548401 
	C748.036865,783.204224 743.631165,787.663940 737.126465,789.729797 
	C733.655457,790.832214 730.051086,791.759766 726.441162,792.136658 
	C711.908997,793.653809 697.351135,794.925354 682.607788,796.305847 
	C682.607788,807.561096 682.607788,818.637268 682.607788,829.888000 
	C769.583008,826.700562 855.806763,826.898010 942.604004,829.785095 
	C942.773071,826.349670 943.020569,823.415527 943.042053,820.479858 
	C943.100037,812.543579 943.061890,804.606567 943.061890,796.385925 
	C939.541199,796.006226 936.930969,795.689941 934.313782,795.448364 
	C921.711975,794.284912 909.052063,793.561829 896.519409,791.885254 
	C880.724976,789.772522 875.498962,784.890259 873.790100,768.950989 
	C872.231689,754.414734 871.816162,739.700012 871.800232,725.063049 
	C871.651184,587.740295 871.693665,450.417358 871.703674,313.094482 
	C871.703918,310.171448 871.975830,307.248413 872.147339,303.795197 
	C877.027344,302.416321 881.422607,300.354187 885.938110,300.044647 
	C902.850037,298.885193 919.800110,297.711731 936.738037,297.679535 
	C950.794128,297.652832 964.503906,300.845490 977.572205,306.297791 
	C1010.094788,319.866760 1030.822510,343.102875 1036.887085,378.453064 
	C1039.332031,392.704437 1039.487061,407.012726 1037.729004,421.286957 
	C1031.281494,473.633484 996.375671,511.096741 948.612549,520.378906 
	C934.372009,523.146423 919.651001,523.441589 903.809753,525.001465 
	C902.434143,528.227905 900.381836,533.041748 898.285828,537.958069 
	C961.337463,635.607178 1024.169556,732.916443 1086.928711,830.112549 
	C1139.614014,826.497681 1191.472168,827.014648 1243.766357,829.976013 
	C1243.766357,818.242371 1243.766357,807.372864 1243.766357,796.215515 
	C1238.073242,794.868835 1232.358643,794.146118 1227.146118,792.127197 
	C1220.411499,789.518799 1213.166016,786.966370 1207.760254,782.450806 
	C1196.257812,772.842529 1186.631470,761.401184 1178.313721,748.704102 
	C1132.672607,679.032349 1086.688843,609.585144 1040.038452,538.838379 
M1543.122925,829.986755 
	C1556.877319,824.081421 1570.489136,817.812256 1584.419678,812.356934 
	C1604.882935,804.343201 1613.824951,786.784790 1622.847290,768.228699 
	C1619.175415,765.425232 1615.845215,762.882812 1612.688354,760.472656 
	C1597.036133,768.952393 1582.144165,777.075867 1567.198853,785.099854 
	C1554.770020,791.772705 1541.618286,796.180054 1527.580566,798.145264 
	C1504.472900,801.380310 1481.739014,799.513672 1459.178711,794.049622 
	C1427.282959,786.324646 1402.196289,768.973694 1384.423828,741.270203 
	C1372.026733,721.945557 1364.106323,700.854736 1360.205688,678.292175 
	C1357.726685,663.954102 1355.727173,649.530029 1356.639282,633.960876 
	C1360.462769,633.960876 1363.716309,633.960815 1366.969971,633.960815 
	C1402.295410,633.960632 1437.621582,634.107300 1472.946045,633.921265 
	C1512.609131,633.712402 1552.260132,632.846497 1591.692261,628.039490 
	C1604.806030,626.440918 1617.839722,624.185791 1631.742554,622.106201 
	C1631.742554,604.284668 1632.612915,587.615234 1631.548340,571.070435 
	C1629.736816,542.917725 1620.563477,517.067566 1603.960205,494.032990 
	C1563.807373,438.326080 1491.237305,424.367767 1438.786499,437.422760 
	C1403.119385,446.300262 1371.634033,464.216095 1342.379395,486.387939 
	C1315.029785,507.116089 1296.646973,533.857910 1287.924438,566.732788 
	C1275.695801,612.822449 1273.128418,659.711548 1284.213989,706.247131 
	C1300.807129,775.902222 1343.852661,820.910767 1414.050781,838.110657 
	C1457.210205,848.685608 1499.920288,846.665283 1543.122925,829.986755 
M1745.950562,615.000000 
	C1745.941528,658.980286 1746.057739,702.961182 1745.837891,746.940430 
	C1745.781372,758.242554 1744.733032,769.543640 1744.018188,780.837463 
	C1743.311035,792.011841 1737.234497,798.582397 1726.321045,800.593262 
	C1721.756348,801.434387 1717.125000,802.050903 1712.496338,802.381531 
	C1700.634644,803.228821 1688.757202,803.858521 1676.830200,804.578613 
	C1676.830200,813.505798 1676.830200,821.581177 1676.830200,829.901123 
	C1747.005127,826.699463 1816.434326,826.890198 1885.483398,829.797668 
	C1885.483398,820.628235 1885.483398,812.772583 1885.483398,804.533264 
	C1882.583374,804.322083 1880.304932,804.130127 1878.023071,803.994324 
	C1866.383301,803.301514 1854.707642,802.983215 1843.110229,801.856689 
	C1825.258789,800.122620 1819.502808,794.462219 1818.121826,776.961853 
	C1817.048706,763.362366 1816.358643,749.693604 1816.349243,736.055054 
	C1816.232788,568.465393 1816.247070,400.875580 1816.367676,233.285919 
	C1816.372559,226.504684 1815.671143,220.733719 1807.788940,217.227661 
	C1766.781860,234.407578 1722.272095,240.570557 1678.505493,247.922943 
	C1678.505493,256.575867 1678.505493,264.027039 1678.505493,271.954132 
	C1694.208740,271.954132 1709.168823,271.830109 1724.125854,271.991669 
	C1737.100464,272.131805 1742.115356,276.251648 1744.210938,289.286865 
	C1745.419189,296.802887 1745.871948,304.514008 1745.880005,312.138153 
	C1745.985229,412.425354 1745.950317,512.712708 1745.950562,615.000000 
z"/>
<path fill="#FBFBFB" opacity="1.000000" stroke="none" 
	d="
M2069.971924,692.071899 
	C2086.867676,687.422791 2103.646973,682.279907 2120.690674,678.258423 
	C2139.110840,673.912354 2157.778320,670.613892 2177.036865,666.717041 
	C2177.156006,664.395874 2177.416504,661.846313 2177.396973,659.298889 
	C2177.238525,638.569946 2178.738770,618.020874 2183.593994,597.791443 
	C2193.939941,554.680786 2217.909912,520.815796 2254.202637,495.924957 
	C2278.092529,479.540527 2302.581543,463.978912 2327.321045,448.899841 
	C2348.426025,436.036224 2372.171387,432.717072 2396.518799,433.026550 
	C2434.033447,433.503418 2469.745605,442.013977 2503.773193,457.606293 
	C2508.847168,459.931305 2512.707275,459.965240 2517.519531,456.763733 
	C2528.854492,449.222626 2540.634277,442.349976 2552.651367,434.949860 
	C2557.664307,437.936920 2562.458008,440.793396 2567.402100,443.739594 
	C2564.179199,453.577484 2560.602539,462.846649 2558.114990,472.399384 
	C2550.839600,500.339264 2549.403076,529.011169 2549.026367,557.675781 
	C2548.544434,594.332520 2548.872559,630.999817 2548.869873,667.662598 
	C2548.869629,668.959778 2549.066650,670.257019 2549.279541,672.881897 
	C2599.829590,678.123108 2650.307617,683.356812 2701.349609,688.648987 
	C2701.562988,685.263977 2701.869141,682.665894 2701.869629,680.067627 
	C2701.879883,634.738892 2701.963135,589.409668 2701.747070,544.081909 
	C2701.699707,534.108032 2700.952637,524.095215 2699.833496,514.178650 
	C2698.124512,499.037476 2692.087402,493.127991 2676.703613,491.793518 
	C2666.765381,490.931366 2656.733887,491.117828 2646.742920,490.894318 
	C2642.789795,490.805908 2638.832764,490.879852 2634.290771,490.879852 
	C2634.290771,482.964783 2634.290771,475.793549 2634.290771,467.643646 
	C2640.924561,466.641968 2647.734375,465.636841 2654.536865,464.582703 
	C2689.904297,459.102051 2723.985352,448.966370 2757.213623,435.874939 
	C2762.491455,433.795502 2767.237793,432.264282 2772.872070,437.809326 
	C2772.872070,522.637573 2772.872070,608.504028 2772.872070,695.131104 
	C2838.513672,700.856934 2903.307373,703.358032 2969.599121,701.815125 
	C2970.110107,697.529968 2971.047852,693.373779 2971.033691,689.220886 
	C2970.846436,634.565918 2970.594971,579.910889 2970.135986,525.257751 
	C2970.085938,519.315979 2968.838623,513.351135 2967.794189,507.459473 
	C2966.580811,500.613831 2962.424316,495.611084 2955.724854,494.221405 
	C2947.317871,492.477600 2938.686035,491.526367 2930.104492,490.997589 
	C2921.515381,490.468384 2912.868408,490.881348 2903.533936,490.881348 
	C2903.533936,483.089325 2903.533936,475.930725 2903.533936,468.155060 
	C2905.337891,467.656250 2907.478027,466.750397 2909.692871,466.498535 
	C2950.349609,461.875305 2989.228027,450.452942 3027.174316,435.600372 
	C3032.314941,433.588226 3036.668213,432.720459 3041.616699,437.676025 
	C3041.616699,523.435120 3041.616699,609.991028 3041.616699,696.464111 
	C3055.775146,698.047241 3132.789551,687.175110 3148.913574,681.357239 
	C3148.817871,679.338257 3148.729736,677.116699 3148.603760,674.897278 
	C3146.381836,635.749329 3147.508301,596.879761 3159.930908,559.221130 
	C3169.692139,529.631348 3186.946045,505.311157 3212.050537,486.478851 
	C3233.752686,470.199097 3256.870361,456.719574 3281.882568,446.087036 
	C3315.354004,431.858368 3349.488037,429.981934 3384.642578,437.513916 
	C3421.319336,445.372009 3451.291748,463.756073 3473.618164,494.014526 
	C3490.689209,517.151001 3499.614990,543.495178 3501.428223,571.984985 
	C3502.460205,588.203247 3501.614990,604.540955 3501.614990,621.816406 
	C3492.916748,623.300232 3485.177002,624.768799 3477.390625,625.924194 
	C3432.759033,632.547363 3387.780518,633.595581 3342.780029,633.910828 
	C3307.451904,634.158386 3272.120605,633.961121 3236.790771,633.961426 
	C3233.533203,633.961426 3230.275879,633.961426 3226.496582,633.961426 
	C3225.566406,649.908081 3227.501465,664.661743 3230.136963,679.341614 
	C3234.186523,701.901184 3242.206543,722.964417 3254.759033,742.180969 
	C3272.750732,769.724670 3298.017334,786.815186 3329.999268,794.276184 
	C3359.036377,801.050171 3388.239258,803.191833 3416.763672,793.291260 
	C3431.731689,788.095825 3445.679932,779.895569 3459.941895,772.758545 
	C3467.362549,769.045044 3474.463623,764.693787 3482.306885,760.295471 
	C3485.681885,762.919189 3489.001709,765.500000 3493.099365,768.685669 
	C3487.302002,778.476746 3482.039062,788.028259 3476.058594,797.106873 
	C3473.962402,800.288879 3470.408691,802.851562 3467.000488,804.776978 
	C3421.930664,830.239990 3374.691895,847.825928 3321.697021,843.944885 
	C3295.920898,842.057312 3270.941895,836.820007 3247.448486,825.713989 
	C3200.188965,803.373230 3171.232910,765.702026 3156.258301,716.400269 
	C3155.490479,713.871521 3154.794922,711.320740 3154.107178,708.924316 
	C3116.889160,713.195068 3079.988770,717.429321 3042.227295,721.762390 
	C3042.078613,723.534546 3041.612061,726.077209 3041.694092,728.602112 
	C3042.265137,746.232056 3042.862305,763.862061 3043.629150,781.484314 
	C3044.111572,792.567261 3050.950439,798.470703 3061.081787,800.274536 
	C3070.554688,801.961060 3080.232422,802.538574 3089.835693,803.435913 
	C3095.123535,803.930054 3100.444092,804.077637 3106.460449,804.422180 
	C3106.460449,812.829102 3106.460449,820.945007 3106.460449,829.874695 
	C3060.452881,826.914001 3014.648682,826.728882 2968.315918,829.970154 
	C2969.418945,804.912964 2970.494141,780.492554 2971.653320,754.158630 
	C2968.126953,756.380188 2966.157715,757.255859 2964.643311,758.632019 
	C2950.832764,771.183960 2936.600586,783.324158 2923.446777,796.535767 
	C2892.393799,827.725586 2854.382080,839.250488 2811.525146,837.207703 
	C2799.276367,836.623901 2786.883057,835.261047 2774.951904,832.527893 
	C2733.750488,823.089661 2708.513672,793.333618 2704.152344,750.038269 
	C2702.620605,734.829102 2702.327148,719.495239 2701.409180,703.164307 
	C2651.072021,696.967834 2600.651367,690.761169 2549.323242,684.442688 
	C2549.135254,688.660461 2548.865967,691.892761 2548.865479,695.125061 
	C2548.847168,788.782288 2548.811768,882.439636 2548.917236,976.096741 
	C2548.929932,987.418884 2549.349121,998.769836 2550.245361,1010.054688 
	C2551.567627,1026.701294 2556.006836,1031.816772 2572.421631,1034.431763 
	C2583.903564,1036.260864 2595.609619,1036.691650 2607.219971,1037.698242 
	C2610.521240,1037.984497 2613.837158,1038.099854 2617.890137,1038.337280 
	C2617.890137,1046.715576 2617.890137,1054.796509 2617.890137,1063.903809 
	C2544.953125,1059.946533 2472.175049,1060.436523 2398.931152,1064.073975 
	C2398.931152,1054.872192 2398.931152,1047.059082 2398.931152,1038.492310 
	C2413.955566,1037.667236 2428.528809,1037.088013 2443.060791,1035.969116 
	C2449.646240,1035.461914 2456.245117,1034.273193 2462.665527,1032.692871 
	C2470.584961,1030.743408 2475.266357,1025.273315 2476.015869,1017.102966 
	C2476.988525,1006.503418 2478.135254,995.866943 2478.169434,985.242981 
	C2478.382568,919.250244 2478.305420,853.256653 2478.324463,787.263306 
	C2478.325684,782.960510 2478.324951,778.657715 2478.324951,772.838074 
	C2474.883545,774.688232 2472.344971,775.860107 2470.002441,777.341858 
	C2446.074219,792.478088 2421.857910,807.190613 2398.392090,823.014648 
	C2384.267090,832.539551 2369.183350,837.346313 2352.472412,837.382385 
	C2321.071045,837.450195 2290.817139,832.044312 2262.813965,817.071838 
	C2220.856445,794.638306 2195.706787,759.274292 2184.389160,713.680359 
	C2181.199463,700.831055 2179.438477,687.627075 2176.900391,673.928955 
	C2145.315186,678.540894 2114.037598,684.159302 2082.111328,693.675781 
	C2078.482666,694.422058 2076.306152,695.197021 2074.129883,695.971924 
	C2074.129883,695.971924 2074.011475,696.046387 2073.279785,695.868103 
	C2071.190186,695.866821 2069.832031,696.043762 2068.003418,696.050659 
	C2067.021484,695.459900 2066.510498,695.039185 2066.544922,694.360840 
	C2068.051025,693.426147 2069.011475,692.749023 2069.971924,692.071899 
M2279.141113,658.166687 
	C2345.365723,656.201599 2411.427002,658.783020 2477.312256,666.037964 
	C2477.767334,664.405518 2478.252930,663.474426 2478.253906,662.542786 
	C2478.305420,612.276978 2478.257812,562.010925 2478.435791,511.745575 
	C2478.450684,507.476685 2476.539795,504.993835 2473.663330,502.551910 
	C2459.683350,490.683136 2443.842529,482.184113 2425.781494,479.187134 
	C2408.429688,476.307892 2390.857666,473.929443 2373.309082,473.262909 
	C2349.152100,472.345337 2326.455078,478.825592 2306.282959,492.473785 
	C2277.106934,512.213867 2261.303711,540.755920 2254.022217,574.472168 
	C2250.135742,592.466858 2249.283691,610.811035 2250.745361,629.115784 
	C2251.552002,639.217163 2250.857422,649.676025 2254.918945,659.538879 
	C2262.617432,659.078552 2269.906006,658.642700 2279.141113,658.166687 
M3409.448975,509.818298 
	C3406.798340,505.204376 3404.477539,500.359131 3401.436035,496.019135 
	C3391.916016,482.435059 3380.473633,471.080353 3364.359619,465.375122 
	C3325.234375,451.523102 3274.239258,469.417786 3249.846436,505.603333 
	C3235.849854,526.366272 3229.878174,549.697266 3228.235840,574.295898 
	C3227.668701,582.791565 3228.145264,591.356812 3228.145264,600.249695 
	C3294.898193,608.372986 3360.922607,605.923462 3427.605469,602.998718 
	C3426.794922,570.445435 3423.394531,539.887268 3409.448975,509.818298 
M2316.582275,772.538269 
	C2345.839111,789.996033 2376.800049,794.875305 2409.453613,784.174011 
	C2427.299805,778.325500 2443.546631,769.154663 2457.751221,756.763916 
	C2462.738525,752.413330 2467.229004,747.426697 2471.536865,742.380737 
	C2476.451172,736.624084 2478.630371,729.867004 2478.422607,722.101257 
	C2478.083984,709.457520 2478.366943,696.797913 2478.304199,684.145386 
	C2478.291504,681.594299 2477.906494,679.045105 2477.693359,676.499634 
	C2403.726074,667.033997 2330.153564,663.616455 2255.030518,666.694336 
	C2263.553467,709.313599 2278.604492,746.690002 2316.582275,772.538269 
M2851.050781,718.037476 
	C2825.639648,715.954834 2800.228271,713.872253 2773.540039,711.684998 
	C2774.969971,720.048828 2775.914062,727.219238 2777.452393,734.259705 
	C2781.969727,754.931458 2794.210205,769.504761 2813.568848,777.727539 
	C2833.986084,786.400269 2855.682129,788.729431 2877.199707,784.922241 
	C2913.338135,778.528198 2939.840820,757.259949 2959.309326,726.722595 
	C2959.911865,725.777710 2959.801758,724.378601 2959.995117,723.346130 
	C2923.927490,721.586609 2888.428467,719.854858 2851.050781,718.037476 
z"/>
<path fill="#FDFDFD" opacity="1.000000" stroke="none" 
	d="
M1040.430664,539.449585 
	C1086.688843,609.585144 1132.672607,679.032349 1178.313721,748.704102 
	C1186.631470,761.401184 1196.257812,772.842529 1207.760254,782.450806 
	C1213.166016,786.966370 1220.411499,789.518799 1227.146118,792.127197 
	C1232.358643,794.146118 1238.073242,794.868835 1243.766357,796.215515 
	C1243.766357,807.372864 1243.766357,818.242371 1243.766357,829.976013 
	C1191.472168,827.014648 1139.614014,826.497681 1086.928711,830.112549 
	C1024.169556,732.916443 961.337463,635.607178 898.285828,537.958069 
	C900.381836,533.041748 902.434143,528.227905 903.809753,525.001465 
	C919.651001,523.441589 934.372009,523.146423 948.612549,520.378906 
	C996.375671,511.096741 1031.281494,473.633484 1037.729004,421.286957 
	C1039.487061,407.012726 1039.332031,392.704437 1036.887085,378.453064 
	C1030.822510,343.102875 1010.094788,319.866760 977.572205,306.297791 
	C964.503906,300.845490 950.794128,297.652832 936.738037,297.679535 
	C919.800110,297.711731 902.850037,298.885193 885.938110,300.044647 
	C881.422607,300.354187 877.027344,302.416321 872.147339,303.795197 
	C871.975830,307.248413 871.703918,310.171448 871.703674,313.094482 
	C871.693665,450.417358 871.651184,587.740295 871.800232,725.063049 
	C871.816162,739.700012 872.231689,754.414734 873.790100,768.950989 
	C875.498962,784.890259 880.724976,789.772522 896.519409,791.885254 
	C909.052063,793.561829 921.711975,794.284912 934.313782,795.448364 
	C936.930969,795.689941 939.541199,796.006226 943.061890,796.385925 
	C943.061890,804.606567 943.100037,812.543579 943.042053,820.479858 
	C943.020569,823.415527 942.773071,826.349670 942.604004,829.785095 
	C855.806763,826.898010 769.583008,826.700562 682.607788,829.888000 
	C682.607788,818.637268 682.607788,807.561096 682.607788,796.305847 
	C697.351135,794.925354 711.908997,793.653809 726.441162,792.136658 
	C730.051086,791.759766 733.655457,790.832214 737.126465,789.729797 
	C743.631165,787.663940 748.036865,783.204224 749.561096,776.548401 
	C750.819092,771.055237 751.884705,765.417419 752.107788,759.806885 
	C752.756531,743.492126 753.242310,727.159119 753.255859,710.832825 
	C753.348083,599.508118 753.344116,488.183136 753.256592,376.858337 
	C753.243530,360.198029 752.646179,343.537842 752.278992,326.878479 
	C752.220215,324.215363 752.062256,321.543976 751.758179,318.898468 
	C749.572937,299.884277 742.464539,292.546844 723.494873,289.940308 
	C716.569458,288.988708 709.595398,288.388702 702.641907,287.643890 
	C696.066284,286.939575 689.488464,286.255707 681.850830,285.451080 
	C681.850830,280.324554 681.850830,275.413818 681.850830,270.503052 
	C681.850830,265.598480 681.850830,260.693909 681.850830,255.056366 
	C686.125977,255.056366 689.398315,254.986145 692.666992,255.066559 
	C790.985229,257.485260 889.301880,256.765594 987.618530,254.959152 
	C1016.042480,254.436920 1044.302734,255.932205 1071.827148,263.689972 
	C1095.341064,270.317352 1116.134277,281.598602 1132.383789,300.463226 
	C1148.242676,318.874481 1155.894043,340.388458 1157.853394,364.288361 
	C1162.162476,416.846710 1141.868530,458.399231 1101.263062,490.826843 
	C1083.697021,504.855011 1064.084961,515.409912 1043.470581,524.196899 
	C1040.432983,525.491699 1037.422119,526.849365 1033.450073,528.594849 
	C1035.845581,532.319397 1037.942017,535.578918 1040.430664,539.449585 
z"/>
<path fill="#FBFCFC" opacity="1.000000" stroke="none" 
	d="
M1542.366943,830.189636 
	C1499.920288,846.665283 1457.210205,848.685608 1414.050781,838.110657 
	C1343.852661,820.910767 1300.807129,775.902222 1284.213989,706.247131 
	C1273.128418,659.711548 1275.695801,612.822449 1287.924438,566.732788 
	C1296.646973,533.857910 1315.029785,507.116089 1342.379395,486.387939 
	C1371.634033,464.216095 1403.119385,446.300262 1438.786499,437.422760 
	C1491.237305,424.367767 1563.807373,438.326080 1603.960205,494.032990 
	C1620.563477,517.067566 1629.736816,542.917725 1631.548340,571.070435 
	C1632.612915,587.615234 1631.742554,604.284668 1631.742554,622.106201 
	C1617.839722,624.185791 1604.806030,626.440918 1591.692261,628.039490 
	C1552.260132,632.846497 1512.609131,633.712402 1472.946045,633.921265 
	C1437.621582,634.107300 1402.295410,633.960632 1366.969971,633.960815 
	C1363.716309,633.960815 1360.462769,633.960876 1356.639282,633.960876 
	C1355.727173,649.530029 1357.726685,663.954102 1360.205688,678.292175 
	C1364.106323,700.854736 1372.026733,721.945557 1384.423828,741.270203 
	C1402.196289,768.973694 1427.282959,786.324646 1459.178711,794.049622 
	C1481.739014,799.513672 1504.472900,801.380310 1527.580566,798.145264 
	C1541.618286,796.180054 1554.770020,791.772705 1567.198853,785.099854 
	C1582.144165,777.075867 1597.036133,768.952393 1612.688354,760.472656 
	C1615.845215,762.882812 1619.175415,765.425232 1622.847290,768.228699 
	C1613.824951,786.784790 1604.882935,804.343201 1584.419678,812.356934 
	C1570.489136,817.812256 1556.877319,824.081421 1542.366943,830.189636 
M1373.253662,601.910889 
	C1432.238647,607.084717 1541.865234,606.809448 1557.776001,601.264771 
	C1557.144653,570.614929 1553.744385,540.360962 1540.609985,511.990387 
	C1537.690918,505.685181 1534.180298,499.539551 1530.151245,493.883972 
	C1518.124512,477.003174 1502.641357,464.642914 1481.508423,461.962402 
	C1448.321167,457.752960 1418.511597,466.289642 1394.112549,489.505554 
	C1362.519409,519.566772 1357.210938,558.588989 1357.995239,599.932373 
	C1362.967163,600.604736 1367.214478,601.179138 1373.253662,601.910889 
z"/>
<path fill="#FCFDFD" opacity="1.000000" stroke="none" 
	d="
M1745.950562,614.000000 
	C1745.950317,512.712708 1745.985229,412.425354 1745.880005,312.138153 
	C1745.871948,304.514008 1745.419189,296.802887 1744.210938,289.286865 
	C1742.115356,276.251648 1737.100464,272.131805 1724.125854,271.991669 
	C1709.168823,271.830109 1694.208740,271.954132 1678.505493,271.954132 
	C1678.505493,264.027039 1678.505493,256.575867 1678.505493,247.922943 
	C1722.272095,240.570557 1766.781860,234.407578 1807.788940,217.227661 
	C1815.671143,220.733719 1816.372559,226.504684 1816.367676,233.285919 
	C1816.247070,400.875580 1816.232788,568.465393 1816.349243,736.055054 
	C1816.358643,749.693604 1817.048706,763.362366 1818.121826,776.961853 
	C1819.502808,794.462219 1825.258789,800.122620 1843.110229,801.856689 
	C1854.707642,802.983215 1866.383301,803.301514 1878.023071,803.994324 
	C1880.304932,804.130127 1882.583374,804.322083 1885.483398,804.533264 
	C1885.483398,812.772583 1885.483398,820.628235 1885.483398,829.797668 
	C1816.434326,826.890198 1747.005127,826.699463 1676.830200,829.901123 
	C1676.830200,821.581177 1676.830200,813.505798 1676.830200,804.578613 
	C1688.757202,803.858521 1700.634644,803.228821 1712.496338,802.381531 
	C1717.125000,802.050903 1721.756348,801.434387 1726.321045,800.593262 
	C1737.234497,798.582397 1743.311035,792.011841 1744.018188,780.837463 
	C1744.733032,769.543640 1745.781372,758.242554 1745.837891,746.940430 
	C1746.057739,702.961182 1745.941528,658.980286 1745.950562,614.000000 
z"/>
<path fill="#FBFBFB" opacity="1.000000" stroke="none" 
	d="
M2065.999268,694.618530 
	C2066.510498,695.039185 2067.021484,695.459900 2067.854248,696.462646 
	C2068.175781,697.044800 2067.984375,697.900696 2067.984375,697.900696 
	C2064.462891,698.960205 2060.892334,699.661743 2061.069824,704.776123 
	C2061.957764,730.375854 2062.658691,755.982117 2063.461426,781.584900 
	C2063.811523,792.753662 2070.405762,798.755737 2080.694824,800.340393 
	C2091.512207,802.006409 2102.497803,802.615662 2113.422363,803.537842 
	C2118.710449,803.984253 2124.027100,804.090271 2130.085938,804.387451 
	C2130.085938,812.762756 2130.085938,820.854919 2130.085938,829.917358 
	C2060.670410,826.530823 1991.265503,826.906128 1921.290527,829.846130 
	C1921.290527,821.262695 1921.290527,813.145386 1921.290527,804.534241 
	C1934.087646,803.783936 1946.334717,803.090515 1958.578491,802.342651 
	C1982.787598,800.863892 1988.574463,795.031616 1989.870972,770.568359 
	C1990.258545,763.255310 1990.454834,755.923401 1990.458984,748.599976 
	C1990.498291,680.997620 1990.567139,613.395020 1990.380371,545.793152 
	C1990.350098,534.839233 1989.676636,523.815002 1988.280273,512.954529 
	C1986.424805,498.524078 1980.868774,493.288666 1966.265503,491.893097 
	C1956.347900,490.945312 1946.318359,491.140472 1936.337158,490.899200 
	C1932.057129,490.795776 1927.772461,490.881927 1922.892090,490.881927 
	C1922.892090,482.979645 1922.892090,475.818329 1922.892090,467.654755 
	C1928.768066,466.811371 1934.935425,465.969513 1941.088623,465.035858 
	C1977.443970,459.519409 2012.378662,448.859497 2046.607788,435.707764 
	C2050.760986,434.112030 2054.662842,432.274139 2059.252441,436.387024 
	C2059.796875,437.893005 2060.173340,438.282379 2060.886230,438.346893 
	C2060.960205,464.660675 2061.080322,490.974457 2061.098877,517.288269 
	C2061.139893,575.252686 2061.129883,633.217163 2061.237793,692.685791 
	C2062.889160,694.332886 2064.444336,694.475708 2065.999268,694.618530 
z"/>
<path fill="#FDFEFE" opacity="1.000000" stroke="none" 
	d="
M1978.158203,278.316681 
	C1978.234497,277.911621 1978.310913,277.506592 1979.191528,276.562805 
	C1980.514282,275.562469 1980.576904,275.045807 1980.183716,274.474121 
	C1980.780640,273.341125 1981.377563,272.208160 1982.876953,270.580566 
	C1984.372803,269.662018 1984.506836,269.123810 1984.181396,268.471344 
	C1984.181396,268.471344 1984.107910,268.177124 1984.754150,268.074707 
	C1985.619507,267.378662 1985.838379,266.785034 1986.057251,266.191406 
	C1987.041870,264.972351 1988.026611,263.753326 1990.072266,262.242188 
	C1991.440796,261.358185 1991.748047,260.766266 1992.055420,260.174377 
	C1992.526733,259.633301 1992.998047,259.092194 1994.426514,258.413696 
	C1996.090576,258.023865 1996.352783,257.533661 1996.170044,256.805695 
	C1996.170044,256.805695 1996.368042,256.370300 1997.149414,256.454773 
	C1998.635376,255.801971 1999.340088,255.064713 2000.044678,254.327454 
	C2000.044678,254.327438 2000.114746,254.034302 2000.664307,254.223450 
	C2001.925049,254.270142 2002.213867,253.842468 2002.080444,253.129562 
	C2002.403198,252.866211 2002.725952,252.602875 2004.490234,252.363617 
	C2013.472900,251.743576 2021.153687,249.873886 2028.524780,250.715759 
	C2042.948242,252.363113 2053.551270,261.370056 2061.356689,272.917328 
	C2070.330811,286.193634 2071.758545,301.101044 2064.292480,315.422791 
	C2055.042969,333.166199 2040.785645,343.329590 2019.490356,342.534607 
	C1993.053223,341.547638 1971.237549,314.963470 1976.482544,289.029938 
	C1977.198486,285.490692 1977.607178,281.889282 1978.158203,278.316681 
z"/>
<path fill="#BEBCBC" opacity="1.000000" stroke="none" 
	d="
M1977.562012,278.708038 
	C1977.607178,281.889282 1977.198486,285.490692 1976.482544,289.029938 
	C1971.237549,314.963470 1993.053223,341.547638 2019.490356,342.534607 
	C2040.785645,343.329590 2055.042969,333.166199 2064.292480,315.422791 
	C2071.758545,301.101044 2070.330811,286.193634 2061.356689,272.917328 
	C2053.551270,261.370056 2042.948242,252.363113 2028.524780,250.715759 
	C2021.153687,249.873886 2013.472900,251.743576 2005.102051,252.236725 
	C2024.396606,240.654953 2044.087891,243.551392 2062.561279,255.339584 
	C2084.923584,269.609253 2093.880859,298.001648 2085.145508,323.064117 
	C2076.275146,348.513702 2051.905273,364.131012 2024.273682,362.073395 
	C1999.413452,360.222168 1977.190674,340.377228 1972.516968,315.128113 
	C1970.238647,302.819489 1971.105103,290.566864 1977.562012,278.708038 
z"/>
<path fill="#8B8B8B" opacity="1.000000" stroke="none" 
	d="
M2066.544922,694.360901 
	C2064.444336,694.475708 2062.889160,694.332886 2061.319336,693.695679 
	C2063.609863,692.747803 2065.915039,692.294312 2069.096191,691.956421 
	C2069.011475,692.749023 2068.051025,693.426147 2066.544922,694.360901 
z"/>
<path fill="#8B8B8B" opacity="1.000000" stroke="none" 
	d="
M2074.808838,696.124695 
	C2076.306152,695.197021 2078.482666,694.422058 2081.357178,693.866333 
	C2079.866211,694.816223 2077.677002,695.546814 2074.808838,696.124695 
z"/>
<path fill="#8B8B8B" opacity="1.000000" stroke="none" 
	d="
M2068.624023,698.062378 
	C2067.984375,697.900696 2068.175781,697.044800 2068.324707,696.632751 
	C2069.832031,696.043762 2071.190186,695.866821 2073.210205,695.863403 
	C2072.335938,696.766052 2070.799805,697.495056 2068.624023,698.062378 
z"/>
<path fill="#BEBCBC" opacity="1.000000" stroke="none" 
	d="
M1999.513550,254.231476 
	C1999.340088,255.064713 1998.635376,255.801971 1997.387817,256.435791 
	C1997.557373,255.600067 1998.269897,254.867783 1999.513550,254.231476 
z"/>
<path fill="#8B8B8B" opacity="1.000000" stroke="none" 
	d="
M2061.158447,437.881927 
	C2060.173340,438.282379 2059.796875,437.893005 2059.794434,436.739227 
	C2060.365234,436.672150 2060.898193,437.044556 2061.158447,437.881927 
z"/>
<path fill="#BEBCBC" opacity="1.000000" stroke="none" 
	d="
M1979.767944,274.547302 
	C1980.576904,275.045807 1980.514282,275.562469 1979.572510,276.075928 
	C1978.733643,275.560333 1978.801270,275.057892 1979.767944,274.547302 
z"/>
<path fill="#BEBCBC" opacity="1.000000" stroke="none" 
	d="
M1983.738525,268.518677 
	C1984.506836,269.123810 1984.372803,269.662018 1983.328003,270.114624 
	C1982.556152,269.495300 1982.695679,268.969513 1983.738525,268.518677 
z"/>
<path fill="#BEBCBC" opacity="1.000000" stroke="none" 
	d="
M1985.541748,266.256927 
	C1985.838379,266.785034 1985.619507,267.378662 1984.905151,268.060303 
	C1984.615356,267.539673 1984.820801,266.931030 1985.541748,266.256927 
z"/>
<path fill="#BEBCBC" opacity="1.000000" stroke="none" 
	d="
M1991.515869,260.190491 
	C1991.748047,260.766266 1991.440796,261.358185 1990.604980,261.981049 
	C1990.376343,261.410217 1990.676270,260.808411 1991.515869,260.190491 
z"/>
<path fill="#BEBCBC" opacity="1.000000" stroke="none" 
	d="
M2001.675415,252.976196 
	C2002.213867,253.842468 2001.925049,254.270142 2000.805176,254.276901 
	C2000.295654,253.441757 2000.586914,253.002289 2001.675415,252.976196 
z"/>
<path fill="#BEBCBC" opacity="1.000000" stroke="none" 
	d="
M1995.722656,256.738983 
	C1996.352783,257.533661 1996.090576,258.023865 1994.931396,258.209595 
	C1994.338867,257.432861 1994.604248,256.942657 1995.722656,256.738983 
z"/>
<path fill="#020101" opacity="1.000000" stroke="none" 
	d="
M2278.167969,658.186768 
	C2269.906006,658.642700 2262.617432,659.078552 2254.918945,659.538879 
	C2250.857422,649.676025 2251.552002,639.217163 2250.745361,629.115784 
	C2249.283691,610.811035 2250.135742,592.466858 2254.022217,574.472168 
	C2261.303711,540.755920 2277.106934,512.213867 2306.282959,492.473785 
	C2326.455078,478.825592 2349.152100,472.345337 2373.309082,473.262909 
	C2390.857666,473.929443 2408.429688,476.307892 2425.781494,479.187134 
	C2443.842529,482.184113 2459.683350,490.683136 2473.663330,502.551910 
	C2476.539795,504.993835 2478.450684,507.476685 2478.435791,511.745575 
	C2478.257812,562.010925 2478.305420,612.276978 2478.253906,662.542786 
	C2478.252930,663.474426 2477.767334,664.405518 2477.312256,666.037964 
	C2411.427002,658.783020 2345.365723,656.201599 2278.167969,658.186768 
z"/>
<path fill="#030303" opacity="1.000000" stroke="none" 
	d="
M3409.759277,510.500732 
	C3423.394531,539.887268 3426.794922,570.445435 3427.605469,602.998718 
	C3360.922607,605.923462 3294.898193,608.372986 3228.145264,600.249695 
	C3228.145264,591.356812 3227.668701,582.791565 3228.235840,574.295898 
	C3229.878174,549.697266 3235.849854,526.366272 3249.846436,505.603333 
	C3274.239258,469.417786 3325.234375,451.523102 3364.359619,465.375122 
	C3380.473633,471.080353 3391.916016,482.435059 3401.436035,496.019135 
	C3404.477539,500.359131 3406.798340,505.204376 3409.759277,510.500732 
z"/>
<path fill="#020202" opacity="1.000000" stroke="none" 
	d="
M2315.974609,772.148682 
	C2278.604492,746.690002 2263.553467,709.313599 2255.030518,666.694336 
	C2330.153564,663.616455 2403.726074,667.033997 2477.693359,676.499634 
	C2477.906494,679.045105 2478.291504,681.594299 2478.304199,684.145386 
	C2478.366943,696.797913 2478.083984,709.457520 2478.422607,722.101257 
	C2478.630371,729.867004 2476.451172,736.624084 2471.536865,742.380737 
	C2467.229004,747.426697 2462.738525,752.413330 2457.751221,756.763916 
	C2443.546631,769.154663 2427.299805,778.325500 2409.453613,784.174011 
	C2376.800049,794.875305 2345.839111,789.996033 2315.974609,772.148682 
z"/>
<path fill="#040404" opacity="1.000000" stroke="none" 
	d="
M2851.990234,718.080322 
	C2888.428467,719.854858 2923.927490,721.586609 2959.995117,723.346130 
	C2959.801758,724.378601 2959.911865,725.777710 2959.309326,726.722595 
	C2939.840820,757.259949 2913.338135,778.528198 2877.199707,784.922241 
	C2855.682129,788.729431 2833.986084,786.400269 2813.568848,777.727539 
	C2794.210205,769.504761 2781.969727,754.931458 2777.452393,734.259705 
	C2775.914062,727.219238 2774.969971,720.048828 2773.540039,711.684998 
	C2800.228271,713.872253 2825.639648,715.954834 2851.990234,718.080322 
z"/>
<path fill="#030303" opacity="1.000000" stroke="none" 
	d="
M1372.357788,601.832214 
	C1367.214478,601.179138 1362.967163,600.604736 1357.995239,599.932373 
	C1357.210938,558.588989 1362.519409,519.566772 1394.112549,489.505554 
	C1418.511597,466.289642 1448.321167,457.752960 1481.508423,461.962402 
	C1502.641357,464.642914 1518.124512,477.003174 1530.151245,493.883972 
	C1534.180298,499.539551 1537.690918,505.685181 1540.609985,511.990387 
	C1553.744385,540.360962 1557.144653,570.614929 1557.776001,601.264771 
	C1541.865234,606.809448 1432.238647,607.084717 1372.357788,601.832214 
z"/>
</svg>