<svg width="1000" height="1000" viewBox="0 0 1000 1000" fill="none" xmlns="http://www.w3.org/2000/svg">
<rect width="1000" height="1000" rx="130" fill="black"/>
<path d="M252.369 849H149V745.833L367.299 528.346H469.342V632.836L252.369 849Z" fill="white"/>
<path d="M149 150H252.369L469.342 366.164V470.655H367.299L149 253.167V150Z" fill="white"/>
<path d="M746.631 150H850V253.167L631.701 470.655H529.658V366.164L746.631 150Z" fill="white"/>
<path d="M746.631 849H850V745.833L631.701 528.346H529.658V632.836L746.631 849Z" fill="white"/>
<path d="M252.369 849H149V745.833L367.299 528.346H469.342V632.836L252.369 849Z" stroke="black"/>
<path d="M149 150H252.369L469.342 366.164V470.655H367.299L149 253.167V150Z" stroke="black"/>
<path d="M746.631 150H850V253.167L631.701 470.655H529.658V366.164L746.631 150Z" stroke="black"/>
<path d="M746.631 849H850V745.833L631.701 528.346H529.658V632.836L746.631 849Z" stroke="black"/>
</svg>
